<mxfile host="Electron" agent="Mozilla/5.0 (Windows NT 10.0; Win64; x64) AppleWebKit/537.36 (KHTML, like Gecko) draw.io/24.7.8 Chrome/128.0.6613.36 Electron/32.0.1 Safari/537.36" version="24.7.8">
  <diagram id="C5RBs43oDa-KdzZeNtuy" name="Page-1">
    <mxGraphModel dx="2385" dy="1643" grid="1" gridSize="10" guides="1" tooltips="1" connect="1" arrows="1" fold="1" page="1" pageScale="1" pageWidth="2339" pageHeight="3300" math="0" shadow="0">
      <root>
        <mxCell id="WIyWlLk6GJQsqaUBKTNV-0" />
        <mxCell id="WIyWlLk6GJQsqaUBKTNV-1" parent="WIyWlLk6GJQsqaUBKTNV-0" />
        <mxCell id="oknLammDLAeB_AFZQ7d3-3" value="实体类" style="rounded=0;whiteSpace=wrap;html=1;fontSize=14;fillColor=#f5f5f5;fontColor=#333333;strokeColor=#666666;" parent="WIyWlLk6GJQsqaUBKTNV-1" vertex="1">
          <mxGeometry x="240" y="30" width="90" height="30" as="geometry" />
        </mxCell>
        <mxCell id="oknLammDLAeB_AFZQ7d3-4" value="抽象类" style="rounded=0;whiteSpace=wrap;html=1;fontSize=14;fillColor=#f8cecc;strokeColor=#b85450;" parent="WIyWlLk6GJQsqaUBKTNV-1" vertex="1">
          <mxGeometry x="490" y="30" width="90" height="30" as="geometry" />
        </mxCell>
        <mxCell id="oknLammDLAeB_AFZQ7d3-5" value="普通类" style="rounded=0;whiteSpace=wrap;html=1;fontSize=14;fillColor=#dae8fc;strokeColor=#6c8ebf;" parent="WIyWlLk6GJQsqaUBKTNV-1" vertex="1">
          <mxGeometry x="620" y="30" width="90" height="30" as="geometry" />
        </mxCell>
        <mxCell id="oknLammDLAeB_AFZQ7d3-6" value="接口" style="rounded=0;whiteSpace=wrap;html=1;fontSize=14;fillColor=#d5e8d4;strokeColor=#82b366;" parent="WIyWlLk6GJQsqaUBKTNV-1" vertex="1">
          <mxGeometry x="365" y="30" width="90" height="30" as="geometry" />
        </mxCell>
        <mxCell id="oknLammDLAeB_AFZQ7d3-20" value="&lt;span style=&quot;font-weight: 700;&quot;&gt;InstantiationStrategy&lt;/span&gt;" style="swimlane;fontStyle=0;childLayout=stackLayout;horizontal=1;startSize=26;fillColor=#d5e8d4;horizontalStack=0;resizeParent=1;resizeParentMax=0;resizeLast=0;collapsible=1;marginBottom=0;whiteSpace=wrap;html=1;strokeColor=#82b366;" parent="WIyWlLk6GJQsqaUBKTNV-1" vertex="1">
          <mxGeometry x="1660" y="1004" width="170" height="52" as="geometry" />
        </mxCell>
        <mxCell id="oknLammDLAeB_AFZQ7d3-22" value="提供实例化的方法" style="text;strokeColor=none;fillColor=none;align=center;verticalAlign=top;spacingLeft=4;spacingRight=4;overflow=hidden;rotatable=0;points=[[0,0.5],[1,0.5]];portConstraint=eastwest;whiteSpace=wrap;html=1;" parent="oknLammDLAeB_AFZQ7d3-20" vertex="1">
          <mxGeometry y="26" width="170" height="26" as="geometry" />
        </mxCell>
        <mxCell id="SaZr0h4OyMX1n9Bar8NW-18" style="edgeStyle=orthogonalEdgeStyle;rounded=0;orthogonalLoop=1;jettySize=auto;html=1;exitX=0.5;exitY=0;exitDx=0;exitDy=0;entryX=0;entryY=0.5;entryDx=0;entryDy=0;dashed=1;" edge="1" parent="WIyWlLk6GJQsqaUBKTNV-1" source="SaZr0h4OyMX1n9Bar8NW-0" target="oknLammDLAeB_AFZQ7d3-20">
          <mxGeometry relative="1" as="geometry" />
        </mxCell>
        <mxCell id="SaZr0h4OyMX1n9Bar8NW-0" value="&lt;b&gt;SimpleInstantiationStrategy&lt;/b&gt;" style="swimlane;fontStyle=0;childLayout=stackLayout;horizontal=1;startSize=26;fillColor=#dae8fc;horizontalStack=0;resizeParent=1;resizeParentMax=0;resizeLast=0;collapsible=1;marginBottom=0;whiteSpace=wrap;html=1;strokeColor=#6c8ebf;" vertex="1" parent="WIyWlLk6GJQsqaUBKTNV-1">
          <mxGeometry x="1470" y="1084" width="190" height="70" as="geometry" />
        </mxCell>
        <mxCell id="SaZr0h4OyMX1n9Bar8NW-1" value="使用java自身携带的方法创建有参/无参实例" style="text;strokeColor=none;fillColor=none;align=center;verticalAlign=top;spacingLeft=4;spacingRight=4;overflow=hidden;rotatable=0;points=[[0,0.5],[1,0.5]];portConstraint=eastwest;whiteSpace=wrap;html=1;" vertex="1" parent="SaZr0h4OyMX1n9Bar8NW-0">
          <mxGeometry y="26" width="190" height="44" as="geometry" />
        </mxCell>
        <mxCell id="SaZr0h4OyMX1n9Bar8NW-20" style="edgeStyle=orthogonalEdgeStyle;rounded=0;orthogonalLoop=1;jettySize=auto;html=1;exitX=0.5;exitY=0;exitDx=0;exitDy=0;entryX=1;entryY=0.5;entryDx=0;entryDy=0;dashed=1;" edge="1" parent="WIyWlLk6GJQsqaUBKTNV-1" source="SaZr0h4OyMX1n9Bar8NW-2" target="oknLammDLAeB_AFZQ7d3-20">
          <mxGeometry relative="1" as="geometry" />
        </mxCell>
        <mxCell id="SaZr0h4OyMX1n9Bar8NW-2" value="&lt;b&gt;CglibSubclassingInstantiationStrategy&lt;/b&gt;" style="swimlane;fontStyle=0;childLayout=stackLayout;horizontal=1;startSize=26;fillColor=#dae8fc;horizontalStack=0;resizeParent=1;resizeParentMax=0;resizeLast=0;collapsible=1;marginBottom=0;whiteSpace=wrap;html=1;strokeColor=#6c8ebf;" vertex="1" parent="WIyWlLk6GJQsqaUBKTNV-1">
          <mxGeometry x="1830" y="1084" width="260" height="70" as="geometry" />
        </mxCell>
        <mxCell id="SaZr0h4OyMX1n9Bar8NW-3" value="使用cglib的Enhancer的方法去创建有参/无参实例" style="text;strokeColor=none;fillColor=none;align=center;verticalAlign=top;spacingLeft=4;spacingRight=4;overflow=hidden;rotatable=0;points=[[0,0.5],[1,0.5]];portConstraint=eastwest;whiteSpace=wrap;html=1;" vertex="1" parent="SaZr0h4OyMX1n9Bar8NW-2">
          <mxGeometry y="26" width="260" height="44" as="geometry" />
        </mxCell>
        <mxCell id="SaZr0h4OyMX1n9Bar8NW-13" value="" style="endArrow=classic;html=1;rounded=0;dashed=1;" edge="1" parent="WIyWlLk6GJQsqaUBKTNV-1">
          <mxGeometry width="50" height="50" relative="1" as="geometry">
            <mxPoint x="760" y="40" as="sourcePoint" />
            <mxPoint x="840" y="40" as="targetPoint" />
          </mxGeometry>
        </mxCell>
        <mxCell id="SaZr0h4OyMX1n9Bar8NW-14" value="实现" style="text;html=1;align=center;verticalAlign=middle;whiteSpace=wrap;rounded=0;fontSize=14;" vertex="1" parent="WIyWlLk6GJQsqaUBKTNV-1">
          <mxGeometry x="770" y="50" width="60" height="30" as="geometry" />
        </mxCell>
        <mxCell id="SaZr0h4OyMX1n9Bar8NW-15" value="" style="endArrow=classic;html=1;rounded=0;" edge="1" parent="WIyWlLk6GJQsqaUBKTNV-1">
          <mxGeometry width="50" height="50" relative="1" as="geometry">
            <mxPoint x="880" y="40" as="sourcePoint" />
            <mxPoint x="960" y="40" as="targetPoint" />
          </mxGeometry>
        </mxCell>
        <mxCell id="SaZr0h4OyMX1n9Bar8NW-16" value="继承" style="text;html=1;align=center;verticalAlign=middle;whiteSpace=wrap;rounded=0;fontSize=14;" vertex="1" parent="WIyWlLk6GJQsqaUBKTNV-1">
          <mxGeometry x="890" y="50" width="60" height="30" as="geometry" />
        </mxCell>
        <mxCell id="SaZr0h4OyMX1n9Bar8NW-21" value="" style="rounded=0;whiteSpace=wrap;html=1;fillColor=none;strokeWidth=2;" vertex="1" parent="WIyWlLk6GJQsqaUBKTNV-1">
          <mxGeometry x="1430" y="934" width="670" height="270" as="geometry" />
        </mxCell>
        <mxCell id="SaZr0h4OyMX1n9Bar8NW-22" value="实例化策略" style="text;html=1;align=center;verticalAlign=middle;whiteSpace=wrap;rounded=0;fontSize=20;fontStyle=1" vertex="1" parent="WIyWlLk6GJQsqaUBKTNV-1">
          <mxGeometry x="1687.5" y="944" width="115" height="30" as="geometry" />
        </mxCell>
        <mxCell id="SaZr0h4OyMX1n9Bar8NW-47" value="PropertyValue" style="swimlane;fontStyle=1;childLayout=stackLayout;horizontal=1;startSize=30;horizontalStack=0;resizeParent=1;resizeParentMax=0;resizeLast=0;collapsible=1;marginBottom=0;whiteSpace=wrap;html=1;fillColor=#f5f5f5;fontColor=#333333;strokeColor=#666666;" vertex="1" parent="WIyWlLk6GJQsqaUBKTNV-1">
          <mxGeometry x="120" y="285" width="140" height="60" as="geometry" />
        </mxCell>
        <mxCell id="SaZr0h4OyMX1n9Bar8NW-48" value="单个属性和值" style="text;strokeColor=none;fillColor=none;align=center;verticalAlign=middle;spacingLeft=4;spacingRight=4;overflow=hidden;points=[[0,0.5],[1,0.5]];portConstraint=eastwest;rotatable=0;whiteSpace=wrap;html=1;" vertex="1" parent="SaZr0h4OyMX1n9Bar8NW-47">
          <mxGeometry y="30" width="140" height="30" as="geometry" />
        </mxCell>
        <mxCell id="SaZr0h4OyMX1n9Bar8NW-52" value="PropertyValues" style="swimlane;fontStyle=1;childLayout=stackLayout;horizontal=1;startSize=30;horizontalStack=0;resizeParent=1;resizeParentMax=0;resizeLast=0;collapsible=1;marginBottom=0;whiteSpace=wrap;html=1;fillColor=#f5f5f5;fontColor=#333333;strokeColor=#666666;" vertex="1" parent="WIyWlLk6GJQsqaUBKTNV-1">
          <mxGeometry x="330" y="280" width="140" height="70" as="geometry" />
        </mxCell>
        <mxCell id="SaZr0h4OyMX1n9Bar8NW-53" value="bean的所有属性和值（用List存储）" style="text;strokeColor=none;fillColor=none;align=center;verticalAlign=middle;spacingLeft=4;spacingRight=4;overflow=hidden;points=[[0,0.5],[1,0.5]];portConstraint=eastwest;rotatable=0;whiteSpace=wrap;html=1;" vertex="1" parent="SaZr0h4OyMX1n9Bar8NW-52">
          <mxGeometry y="30" width="140" height="40" as="geometry" />
        </mxCell>
        <mxCell id="SaZr0h4OyMX1n9Bar8NW-54" value="" style="endArrow=classic;html=1;rounded=0;dashed=1;dashPattern=1 1;" edge="1" parent="WIyWlLk6GJQsqaUBKTNV-1">
          <mxGeometry width="50" height="50" relative="1" as="geometry">
            <mxPoint x="1000" y="40" as="sourcePoint" />
            <mxPoint x="1080" y="40" as="targetPoint" />
          </mxGeometry>
        </mxCell>
        <mxCell id="SaZr0h4OyMX1n9Bar8NW-55" value="引用" style="text;html=1;align=center;verticalAlign=middle;whiteSpace=wrap;rounded=0;fontSize=14;" vertex="1" parent="WIyWlLk6GJQsqaUBKTNV-1">
          <mxGeometry x="1010" y="50" width="60" height="30" as="geometry" />
        </mxCell>
        <mxCell id="SaZr0h4OyMX1n9Bar8NW-59" value="" style="endArrow=classic;html=1;rounded=0;entryX=1.007;entryY=0.15;entryDx=0;entryDy=0;entryPerimeter=0;dashed=1;dashPattern=1 1;" edge="1" parent="WIyWlLk6GJQsqaUBKTNV-1" target="SaZr0h4OyMX1n9Bar8NW-48">
          <mxGeometry width="50" height="50" relative="1" as="geometry">
            <mxPoint x="330" y="320" as="sourcePoint" />
            <mxPoint x="380" y="270" as="targetPoint" />
          </mxGeometry>
        </mxCell>
        <mxCell id="SaZr0h4OyMX1n9Bar8NW-60" value="BeanDefinitionRegistry" style="swimlane;fontStyle=1;childLayout=stackLayout;horizontal=1;startSize=30;horizontalStack=0;resizeParent=1;resizeParentMax=0;resizeLast=0;collapsible=1;marginBottom=0;whiteSpace=wrap;html=1;fillColor=#d5e8d4;strokeColor=#82b366;" vertex="1" parent="WIyWlLk6GJQsqaUBKTNV-1">
          <mxGeometry x="105" y="400" width="170" height="60" as="geometry" />
        </mxCell>
        <mxCell id="SaZr0h4OyMX1n9Bar8NW-61" value="BeanDefinition注册器接口" style="text;strokeColor=none;fillColor=none;align=center;verticalAlign=middle;spacingLeft=4;spacingRight=4;overflow=hidden;points=[[0,0.5],[1,0.5]];portConstraint=eastwest;rotatable=0;whiteSpace=wrap;html=1;" vertex="1" parent="SaZr0h4OyMX1n9Bar8NW-60">
          <mxGeometry y="30" width="170" height="30" as="geometry" />
        </mxCell>
        <mxCell id="SaZr0h4OyMX1n9Bar8NW-62" value="BeanDefinition" style="swimlane;fontStyle=1;childLayout=stackLayout;horizontal=1;startSize=30;horizontalStack=0;resizeParent=1;resizeParentMax=0;resizeLast=0;collapsible=1;marginBottom=0;whiteSpace=wrap;html=1;fillColor=#f5f5f5;strokeColor=#666666;fontColor=#333333;" vertex="1" parent="WIyWlLk6GJQsqaUBKTNV-1">
          <mxGeometry x="325" y="400" width="170" height="60" as="geometry" />
        </mxCell>
        <mxCell id="SaZr0h4OyMX1n9Bar8NW-63" value="bean的信息" style="text;strokeColor=none;fillColor=none;align=center;verticalAlign=middle;spacingLeft=4;spacingRight=4;overflow=hidden;points=[[0,0.5],[1,0.5]];portConstraint=eastwest;rotatable=0;whiteSpace=wrap;html=1;" vertex="1" parent="SaZr0h4OyMX1n9Bar8NW-62">
          <mxGeometry y="30" width="170" height="30" as="geometry" />
        </mxCell>
        <mxCell id="SaZr0h4OyMX1n9Bar8NW-70" value="" style="endArrow=classic;html=1;rounded=0;dashed=1;dashPattern=1 1;" edge="1" parent="WIyWlLk6GJQsqaUBKTNV-1" target="SaZr0h4OyMX1n9Bar8NW-53">
          <mxGeometry width="50" height="50" relative="1" as="geometry">
            <mxPoint x="400" y="400" as="sourcePoint" />
            <mxPoint x="450" y="350" as="targetPoint" />
          </mxGeometry>
        </mxCell>
        <mxCell id="SaZr0h4OyMX1n9Bar8NW-72" value="BeanDefinition管理" style="text;html=1;align=center;verticalAlign=middle;whiteSpace=wrap;rounded=0;fontSize=20;fontStyle=1" vertex="1" parent="WIyWlLk6GJQsqaUBKTNV-1">
          <mxGeometry x="205" y="220" width="210" height="30" as="geometry" />
        </mxCell>
        <mxCell id="SaZr0h4OyMX1n9Bar8NW-74" value="BeanReference" style="swimlane;fontStyle=1;childLayout=stackLayout;horizontal=1;startSize=30;horizontalStack=0;resizeParent=1;resizeParentMax=0;resizeLast=0;collapsible=1;marginBottom=0;whiteSpace=wrap;html=1;fillColor=#f5f5f5;fontColor=#333333;strokeColor=#666666;" vertex="1" parent="WIyWlLk6GJQsqaUBKTNV-1">
          <mxGeometry x="540" y="280" width="140" height="70" as="geometry" />
        </mxCell>
        <mxCell id="SaZr0h4OyMX1n9Bar8NW-75" value="bean的引用（特殊的属性）" style="text;strokeColor=none;fillColor=none;align=center;verticalAlign=middle;spacingLeft=4;spacingRight=4;overflow=hidden;points=[[0,0.5],[1,0.5]];portConstraint=eastwest;rotatable=0;whiteSpace=wrap;html=1;" vertex="1" parent="SaZr0h4OyMX1n9Bar8NW-74">
          <mxGeometry y="30" width="140" height="40" as="geometry" />
        </mxCell>
        <mxCell id="SaZr0h4OyMX1n9Bar8NW-78" value="SingletonBean" style="swimlane;fontStyle=1;childLayout=stackLayout;horizontal=1;startSize=30;horizontalStack=0;resizeParent=1;resizeParentMax=0;resizeLast=0;collapsible=1;marginBottom=0;whiteSpace=wrap;html=1;fillColor=#d5e8d4;strokeColor=#82b366;" vertex="1" parent="WIyWlLk6GJQsqaUBKTNV-1">
          <mxGeometry x="215" y="1100" width="140" height="60" as="geometry" />
        </mxCell>
        <mxCell id="SaZr0h4OyMX1n9Bar8NW-79" value="bean的单例模式接口" style="text;strokeColor=none;fillColor=none;align=center;verticalAlign=middle;spacingLeft=4;spacingRight=4;overflow=hidden;points=[[0,0.5],[1,0.5]];portConstraint=eastwest;rotatable=0;whiteSpace=wrap;html=1;" vertex="1" parent="SaZr0h4OyMX1n9Bar8NW-78">
          <mxGeometry y="30" width="140" height="30" as="geometry" />
        </mxCell>
        <mxCell id="SaZr0h4OyMX1n9Bar8NW-82" value="DefaultSingletonBean" style="swimlane;fontStyle=1;childLayout=stackLayout;horizontal=1;startSize=30;horizontalStack=0;resizeParent=1;resizeParentMax=0;resizeLast=0;collapsible=1;marginBottom=0;whiteSpace=wrap;html=1;align=center;verticalAlign=middle;spacingLeft=4;spacingRight=4;fontFamily=Helvetica;fontSize=12;fillColor=#dae8fc;strokeColor=#6c8ebf;" vertex="1" parent="WIyWlLk6GJQsqaUBKTNV-1">
          <mxGeometry x="435" y="1085" width="160" height="90" as="geometry" />
        </mxCell>
        <mxCell id="SaZr0h4OyMX1n9Bar8NW-83" value="bean的单例模式实现类&lt;div&gt;（通过Map添加和获取单例bean）&lt;/div&gt;" style="text;strokeColor=none;fillColor=none;align=center;verticalAlign=middle;spacingLeft=4;spacingRight=4;overflow=hidden;points=[[0,0.5],[1,0.5]];portConstraint=eastwest;rotatable=0;whiteSpace=wrap;html=1;fontFamily=Helvetica;fontSize=12;fontColor=default;" vertex="1" parent="SaZr0h4OyMX1n9Bar8NW-82">
          <mxGeometry y="30" width="160" height="60" as="geometry" />
        </mxCell>
        <mxCell id="SaZr0h4OyMX1n9Bar8NW-86" value="" style="rounded=0;whiteSpace=wrap;html=1;align=center;verticalAlign=middle;spacingLeft=4;spacingRight=4;fontFamily=Helvetica;fontSize=12;fontColor=default;fillColor=none;gradientColor=none;strokeWidth=2;" vertex="1" parent="WIyWlLk6GJQsqaUBKTNV-1">
          <mxGeometry x="162.5" y="1029" width="480" height="180" as="geometry" />
        </mxCell>
        <mxCell id="SaZr0h4OyMX1n9Bar8NW-89" value="单例Bean" style="text;html=1;align=center;verticalAlign=middle;whiteSpace=wrap;rounded=0;fontSize=20;fontStyle=1" vertex="1" parent="WIyWlLk6GJQsqaUBKTNV-1">
          <mxGeometry x="345" y="1040" width="115" height="30" as="geometry" />
        </mxCell>
        <mxCell id="SaZr0h4OyMX1n9Bar8NW-90" value="BeanException" style="swimlane;fontStyle=1;childLayout=stackLayout;horizontal=1;startSize=30;horizontalStack=0;resizeParent=1;resizeParentMax=0;resizeLast=0;collapsible=1;marginBottom=0;whiteSpace=wrap;html=1;align=center;verticalAlign=middle;spacingLeft=4;spacingRight=4;fontFamily=Helvetica;fontSize=12;fillColor=#dae8fc;strokeColor=#6c8ebf;" vertex="1" parent="WIyWlLk6GJQsqaUBKTNV-1">
          <mxGeometry x="280" y="730" width="140" height="60" as="geometry" />
        </mxCell>
        <mxCell id="SaZr0h4OyMX1n9Bar8NW-91" value="自定义异常" style="text;strokeColor=none;fillColor=none;align=center;verticalAlign=middle;spacingLeft=4;spacingRight=4;overflow=hidden;points=[[0,0.5],[1,0.5]];portConstraint=eastwest;rotatable=0;whiteSpace=wrap;html=1;fontFamily=Helvetica;fontSize=12;fontColor=default;" vertex="1" parent="SaZr0h4OyMX1n9Bar8NW-90">
          <mxGeometry y="30" width="140" height="30" as="geometry" />
        </mxCell>
        <mxCell id="SaZr0h4OyMX1n9Bar8NW-94" value="" style="rounded=0;whiteSpace=wrap;html=1;align=center;verticalAlign=middle;spacingLeft=4;spacingRight=4;fontFamily=Helvetica;fontSize=12;fontColor=default;fillColor=none;gradientColor=none;strokeWidth=2;" vertex="1" parent="WIyWlLk6GJQsqaUBKTNV-1">
          <mxGeometry x="220" y="680" width="270" height="140" as="geometry" />
        </mxCell>
        <mxCell id="SaZr0h4OyMX1n9Bar8NW-95" value="异常类" style="text;html=1;align=center;verticalAlign=middle;whiteSpace=wrap;rounded=0;fontSize=20;fontStyle=1" vertex="1" parent="WIyWlLk6GJQsqaUBKTNV-1">
          <mxGeometry x="292.5" y="690" width="115" height="30" as="geometry" />
        </mxCell>
        <mxCell id="SaZr0h4OyMX1n9Bar8NW-97" value="ClassUtils" style="swimlane;fontStyle=1;childLayout=stackLayout;horizontal=1;startSize=30;horizontalStack=0;resizeParent=1;resizeParentMax=0;resizeLast=0;collapsible=1;marginBottom=0;whiteSpace=wrap;html=1;align=center;verticalAlign=middle;spacingLeft=4;spacingRight=4;fontFamily=Helvetica;fontSize=12;fillColor=#dae8fc;strokeColor=#6c8ebf;" vertex="1" parent="WIyWlLk6GJQsqaUBKTNV-1">
          <mxGeometry x="1852.5" y="324" width="160" height="60" as="geometry" />
        </mxCell>
        <mxCell id="SaZr0h4OyMX1n9Bar8NW-98" value="获取ClassLoader的工具类" style="text;strokeColor=none;fillColor=none;align=center;verticalAlign=middle;spacingLeft=4;spacingRight=4;overflow=hidden;points=[[0,0.5],[1,0.5]];portConstraint=eastwest;rotatable=0;whiteSpace=wrap;html=1;fontFamily=Helvetica;fontSize=12;fontColor=default;" vertex="1" parent="SaZr0h4OyMX1n9Bar8NW-97">
          <mxGeometry y="30" width="160" height="30" as="geometry" />
        </mxCell>
        <mxCell id="SaZr0h4OyMX1n9Bar8NW-101" value="" style="rounded=0;whiteSpace=wrap;html=1;align=center;verticalAlign=middle;spacingLeft=4;spacingRight=4;fontFamily=Helvetica;fontSize=12;fontColor=default;fillColor=none;gradientColor=none;strokeWidth=2;" vertex="1" parent="WIyWlLk6GJQsqaUBKTNV-1">
          <mxGeometry x="1802.5" y="280" width="270" height="134" as="geometry" />
        </mxCell>
        <mxCell id="SaZr0h4OyMX1n9Bar8NW-102" value="工具类" style="text;html=1;align=center;verticalAlign=middle;whiteSpace=wrap;rounded=0;fontSize=20;fontStyle=1" vertex="1" parent="WIyWlLk6GJQsqaUBKTNV-1">
          <mxGeometry x="1872.5" y="290" width="115" height="30" as="geometry" />
        </mxCell>
        <mxCell id="SaZr0h4OyMX1n9Bar8NW-103" value="Resource" style="swimlane;fontStyle=1;childLayout=stackLayout;horizontal=1;startSize=30;horizontalStack=0;resizeParent=1;resizeParentMax=0;resizeLast=0;collapsible=1;marginBottom=0;whiteSpace=wrap;html=1;align=center;verticalAlign=middle;spacingLeft=4;spacingRight=4;fontFamily=Helvetica;fontSize=12;fillColor=#d5e8d4;strokeColor=#82b366;" vertex="1" parent="WIyWlLk6GJQsqaUBKTNV-1">
          <mxGeometry x="1945" y="630" width="140" height="60" as="geometry" />
        </mxCell>
        <mxCell id="SaZr0h4OyMX1n9Bar8NW-104" value="获取InputStream" style="text;strokeColor=none;fillColor=none;align=center;verticalAlign=middle;spacingLeft=4;spacingRight=4;overflow=hidden;points=[[0,0.5],[1,0.5]];portConstraint=eastwest;rotatable=0;whiteSpace=wrap;html=1;fontFamily=Helvetica;fontSize=12;fontColor=default;" vertex="1" parent="SaZr0h4OyMX1n9Bar8NW-103">
          <mxGeometry y="30" width="140" height="30" as="geometry" />
        </mxCell>
        <mxCell id="SaZr0h4OyMX1n9Bar8NW-107" value="ClassPathResource" style="swimlane;fontStyle=1;childLayout=stackLayout;horizontal=1;startSize=30;horizontalStack=0;resizeParent=1;resizeParentMax=0;resizeLast=0;collapsible=1;marginBottom=0;whiteSpace=wrap;html=1;align=center;verticalAlign=middle;spacingLeft=4;spacingRight=4;fontFamily=Helvetica;fontSize=12;fillColor=#dae8fc;strokeColor=#6c8ebf;" vertex="1" parent="WIyWlLk6GJQsqaUBKTNV-1">
          <mxGeometry x="1740" y="520" width="160" height="60" as="geometry" />
        </mxCell>
        <mxCell id="SaZr0h4OyMX1n9Bar8NW-114" value="" style="endArrow=classic;html=1;rounded=0;fontFamily=Helvetica;fontSize=12;fontColor=default;entryX=0.5;entryY=0;entryDx=0;entryDy=0;dashed=1;" edge="1" parent="SaZr0h4OyMX1n9Bar8NW-107" target="SaZr0h4OyMX1n9Bar8NW-103">
          <mxGeometry width="50" height="50" relative="1" as="geometry">
            <mxPoint x="70" y="60" as="sourcePoint" />
            <mxPoint x="120" y="10" as="targetPoint" />
          </mxGeometry>
        </mxCell>
        <mxCell id="SaZr0h4OyMX1n9Bar8NW-108" value="根据类路径获取InputStream" style="text;strokeColor=none;fillColor=none;align=center;verticalAlign=middle;spacingLeft=4;spacingRight=4;overflow=hidden;points=[[0,0.5],[1,0.5]];portConstraint=eastwest;rotatable=0;whiteSpace=wrap;html=1;fontFamily=Helvetica;fontSize=12;fontColor=default;" vertex="1" parent="SaZr0h4OyMX1n9Bar8NW-107">
          <mxGeometry y="30" width="160" height="30" as="geometry" />
        </mxCell>
        <mxCell id="SaZr0h4OyMX1n9Bar8NW-109" value="FileSystemResource" style="swimlane;fontStyle=1;childLayout=stackLayout;horizontal=1;startSize=30;horizontalStack=0;resizeParent=1;resizeParentMax=0;resizeLast=0;collapsible=1;marginBottom=0;whiteSpace=wrap;html=1;align=center;verticalAlign=middle;spacingLeft=4;spacingRight=4;fontFamily=Helvetica;fontSize=12;fillColor=#dae8fc;strokeColor=#6c8ebf;" vertex="1" parent="WIyWlLk6GJQsqaUBKTNV-1">
          <mxGeometry x="1940" y="520" width="150" height="60" as="geometry" />
        </mxCell>
        <mxCell id="SaZr0h4OyMX1n9Bar8NW-115" value="" style="endArrow=classic;html=1;rounded=0;fontFamily=Helvetica;fontSize=12;fontColor=default;dashed=1;" edge="1" parent="SaZr0h4OyMX1n9Bar8NW-109">
          <mxGeometry width="50" height="50" relative="1" as="geometry">
            <mxPoint x="70" y="60" as="sourcePoint" />
            <mxPoint x="70" y="110" as="targetPoint" />
          </mxGeometry>
        </mxCell>
        <mxCell id="SaZr0h4OyMX1n9Bar8NW-110" value="根据具体文件路径获取InputStream" style="text;strokeColor=none;fillColor=none;align=center;verticalAlign=middle;spacingLeft=4;spacingRight=4;overflow=hidden;points=[[0,0.5],[1,0.5]];portConstraint=eastwest;rotatable=0;whiteSpace=wrap;html=1;fontFamily=Helvetica;fontSize=12;fontColor=default;" vertex="1" parent="SaZr0h4OyMX1n9Bar8NW-109">
          <mxGeometry y="30" width="150" height="30" as="geometry" />
        </mxCell>
        <mxCell id="SaZr0h4OyMX1n9Bar8NW-111" value="UrlResource" style="swimlane;fontStyle=1;childLayout=stackLayout;horizontal=1;startSize=30;horizontalStack=0;resizeParent=1;resizeParentMax=0;resizeLast=0;collapsible=1;marginBottom=0;whiteSpace=wrap;html=1;align=center;verticalAlign=middle;spacingLeft=4;spacingRight=4;fontFamily=Helvetica;fontSize=12;fillColor=#dae8fc;strokeColor=#6c8ebf;" vertex="1" parent="WIyWlLk6GJQsqaUBKTNV-1">
          <mxGeometry x="2140" y="520" width="140" height="60" as="geometry" />
        </mxCell>
        <mxCell id="SaZr0h4OyMX1n9Bar8NW-116" value="" style="endArrow=classic;html=1;rounded=0;fontFamily=Helvetica;fontSize=12;fontColor=default;dashed=1;" edge="1" parent="SaZr0h4OyMX1n9Bar8NW-111">
          <mxGeometry width="50" height="50" relative="1" as="geometry">
            <mxPoint x="70" y="60" as="sourcePoint" />
            <mxPoint x="-130" y="110" as="targetPoint" />
          </mxGeometry>
        </mxCell>
        <mxCell id="SaZr0h4OyMX1n9Bar8NW-112" value="根据URL路径获取InputStream" style="text;strokeColor=none;fillColor=none;align=center;verticalAlign=middle;spacingLeft=4;spacingRight=4;overflow=hidden;points=[[0,0.5],[1,0.5]];portConstraint=eastwest;rotatable=0;whiteSpace=wrap;html=1;fontFamily=Helvetica;fontSize=12;fontColor=default;" vertex="1" parent="SaZr0h4OyMX1n9Bar8NW-111">
          <mxGeometry y="30" width="140" height="30" as="geometry" />
        </mxCell>
        <mxCell id="SaZr0h4OyMX1n9Bar8NW-113" value="" style="endArrow=classic;html=1;rounded=0;fontFamily=Helvetica;fontSize=12;fontColor=default;dashed=1;" edge="1" parent="WIyWlLk6GJQsqaUBKTNV-1">
          <mxGeometry width="50" height="50" relative="1" as="geometry">
            <mxPoint x="435" y="1130" as="sourcePoint" />
            <mxPoint x="355" y="1130" as="targetPoint" />
          </mxGeometry>
        </mxCell>
        <mxCell id="SaZr0h4OyMX1n9Bar8NW-119" value="ResourceLoader" style="swimlane;fontStyle=1;childLayout=stackLayout;horizontal=1;startSize=30;horizontalStack=0;resizeParent=1;resizeParentMax=0;resizeLast=0;collapsible=1;marginBottom=0;whiteSpace=wrap;html=1;align=center;verticalAlign=middle;spacingLeft=4;spacingRight=4;fontFamily=Helvetica;fontSize=12;fillColor=#d5e8d4;strokeColor=#82b366;" vertex="1" parent="WIyWlLk6GJQsqaUBKTNV-1">
          <mxGeometry x="1945" y="730" width="140" height="60" as="geometry" />
        </mxCell>
        <mxCell id="SaZr0h4OyMX1n9Bar8NW-120" value="获取Resource" style="text;strokeColor=none;fillColor=none;align=center;verticalAlign=middle;spacingLeft=4;spacingRight=4;overflow=hidden;points=[[0,0.5],[1,0.5]];portConstraint=eastwest;rotatable=0;whiteSpace=wrap;html=1;fontFamily=Helvetica;fontSize=12;fontColor=default;" vertex="1" parent="SaZr0h4OyMX1n9Bar8NW-119">
          <mxGeometry y="30" width="140" height="30" as="geometry" />
        </mxCell>
        <mxCell id="SaZr0h4OyMX1n9Bar8NW-126" style="edgeStyle=orthogonalEdgeStyle;rounded=0;orthogonalLoop=1;jettySize=auto;html=1;exitX=0.5;exitY=0;exitDx=0;exitDy=0;entryX=0.5;entryY=1;entryDx=0;entryDy=0;entryPerimeter=0;fontFamily=Helvetica;fontSize=12;fontColor=default;dashed=1;dashPattern=1 1;" edge="1" parent="WIyWlLk6GJQsqaUBKTNV-1" source="SaZr0h4OyMX1n9Bar8NW-119" target="SaZr0h4OyMX1n9Bar8NW-104">
          <mxGeometry relative="1" as="geometry" />
        </mxCell>
        <mxCell id="SaZr0h4OyMX1n9Bar8NW-127" value="DefaultResourceLoader" style="swimlane;fontStyle=1;childLayout=stackLayout;horizontal=1;startSize=30;horizontalStack=0;resizeParent=1;resizeParentMax=0;resizeLast=0;collapsible=1;marginBottom=0;whiteSpace=wrap;html=1;align=center;verticalAlign=middle;spacingLeft=4;spacingRight=4;fontFamily=Helvetica;fontSize=12;fillColor=#dae8fc;strokeColor=#6c8ebf;" vertex="1" parent="WIyWlLk6GJQsqaUBKTNV-1">
          <mxGeometry x="1720" y="730" width="170" height="60" as="geometry" />
        </mxCell>
        <mxCell id="SaZr0h4OyMX1n9Bar8NW-128" value="根据路径获取具体的Resource" style="text;strokeColor=none;fillColor=none;align=center;verticalAlign=middle;spacingLeft=4;spacingRight=4;overflow=hidden;points=[[0,0.5],[1,0.5]];portConstraint=eastwest;rotatable=0;whiteSpace=wrap;html=1;fontFamily=Helvetica;fontSize=12;fontColor=default;" vertex="1" parent="SaZr0h4OyMX1n9Bar8NW-127">
          <mxGeometry y="30" width="170" height="30" as="geometry" />
        </mxCell>
        <mxCell id="SaZr0h4OyMX1n9Bar8NW-129" value="" style="endArrow=classic;html=1;rounded=0;fontFamily=Helvetica;fontSize=12;fontColor=default;entryX=0;entryY=0.5;entryDx=0;entryDy=0;dashed=1;" edge="1" parent="WIyWlLk6GJQsqaUBKTNV-1" target="SaZr0h4OyMX1n9Bar8NW-119">
          <mxGeometry width="50" height="50" relative="1" as="geometry">
            <mxPoint x="1890" y="760" as="sourcePoint" />
            <mxPoint x="1940" y="710" as="targetPoint" />
          </mxGeometry>
        </mxCell>
        <mxCell id="SaZr0h4OyMX1n9Bar8NW-135" value="BeanDefinitionReader" style="swimlane;fontStyle=1;childLayout=stackLayout;horizontal=1;startSize=30;horizontalStack=0;resizeParent=1;resizeParentMax=0;resizeLast=0;collapsible=1;marginBottom=0;whiteSpace=wrap;html=1;align=center;verticalAlign=middle;spacingLeft=4;spacingRight=4;fontFamily=Helvetica;fontSize=12;fillColor=#d5e8d4;strokeColor=#82b366;" vertex="1" parent="WIyWlLk6GJQsqaUBKTNV-1">
          <mxGeometry x="1470" y="490" width="160" height="70" as="geometry" />
        </mxCell>
        <mxCell id="SaZr0h4OyMX1n9Bar8NW-137" value="把BeanDefinition信息注册到Registry中" style="text;strokeColor=none;fillColor=none;align=center;verticalAlign=middle;spacingLeft=4;spacingRight=4;overflow=hidden;points=[[0,0.5],[1,0.5]];portConstraint=eastwest;rotatable=0;whiteSpace=wrap;html=1;fontFamily=Helvetica;fontSize=12;fontColor=default;" vertex="1" parent="SaZr0h4OyMX1n9Bar8NW-135">
          <mxGeometry y="30" width="160" height="40" as="geometry" />
        </mxCell>
        <mxCell id="SaZr0h4OyMX1n9Bar8NW-138" value="AbstractBeanDefintionReader" style="swimlane;fontStyle=1;childLayout=stackLayout;horizontal=1;startSize=30;horizontalStack=0;resizeParent=1;resizeParentMax=0;resizeLast=0;collapsible=1;marginBottom=0;whiteSpace=wrap;html=1;align=center;verticalAlign=middle;spacingLeft=4;spacingRight=4;fontFamily=Helvetica;fontSize=12;fillColor=#f8cecc;strokeColor=#b85450;" vertex="1" parent="WIyWlLk6GJQsqaUBKTNV-1">
          <mxGeometry x="1450" y="630" width="200" height="70" as="geometry">
            <mxRectangle x="860" y="600" width="200" height="30" as="alternateBounds" />
          </mxGeometry>
        </mxCell>
        <mxCell id="SaZr0h4OyMX1n9Bar8NW-139" value="实现了获取注册器和资源加载器的方法" style="text;strokeColor=none;fillColor=none;align=center;verticalAlign=middle;spacingLeft=4;spacingRight=4;overflow=hidden;points=[[0,0.5],[1,0.5]];portConstraint=eastwest;rotatable=0;whiteSpace=wrap;html=1;fontFamily=Helvetica;fontSize=12;fontColor=default;" vertex="1" parent="SaZr0h4OyMX1n9Bar8NW-138">
          <mxGeometry y="30" width="200" height="40" as="geometry" />
        </mxCell>
        <mxCell id="SaZr0h4OyMX1n9Bar8NW-140" style="edgeStyle=orthogonalEdgeStyle;rounded=0;orthogonalLoop=1;jettySize=auto;html=1;exitX=0.5;exitY=0;exitDx=0;exitDy=0;entryX=0.503;entryY=0.988;entryDx=0;entryDy=0;entryPerimeter=0;fontFamily=Helvetica;fontSize=12;fontColor=default;dashed=1;" edge="1" parent="WIyWlLk6GJQsqaUBKTNV-1" source="SaZr0h4OyMX1n9Bar8NW-138" target="SaZr0h4OyMX1n9Bar8NW-137">
          <mxGeometry relative="1" as="geometry" />
        </mxCell>
        <mxCell id="SaZr0h4OyMX1n9Bar8NW-141" value="XmlBeanDefinitionReader" style="swimlane;fontStyle=1;childLayout=stackLayout;horizontal=1;startSize=30;horizontalStack=0;resizeParent=1;resizeParentMax=0;resizeLast=0;collapsible=1;marginBottom=0;whiteSpace=wrap;html=1;align=center;verticalAlign=middle;spacingLeft=4;spacingRight=4;fontFamily=Helvetica;fontSize=12;fillColor=#dae8fc;strokeColor=#6c8ebf;" vertex="1" parent="WIyWlLk6GJQsqaUBKTNV-1">
          <mxGeometry x="1460" y="745" width="180" height="70" as="geometry" />
        </mxCell>
        <mxCell id="SaZr0h4OyMX1n9Bar8NW-142" value="读取xml文件获取信息进行注册" style="text;strokeColor=none;fillColor=none;align=center;verticalAlign=middle;spacingLeft=4;spacingRight=4;overflow=hidden;points=[[0,0.5],[1,0.5]];portConstraint=eastwest;rotatable=0;whiteSpace=wrap;html=1;fontFamily=Helvetica;fontSize=12;fontColor=default;" vertex="1" parent="SaZr0h4OyMX1n9Bar8NW-141">
          <mxGeometry y="30" width="180" height="40" as="geometry" />
        </mxCell>
        <mxCell id="SaZr0h4OyMX1n9Bar8NW-144" style="edgeStyle=orthogonalEdgeStyle;rounded=0;orthogonalLoop=1;jettySize=auto;html=1;exitX=0.5;exitY=0;exitDx=0;exitDy=0;entryX=0.498;entryY=0.975;entryDx=0;entryDy=0;entryPerimeter=0;fontFamily=Helvetica;fontSize=12;fontColor=default;" edge="1" parent="WIyWlLk6GJQsqaUBKTNV-1" source="SaZr0h4OyMX1n9Bar8NW-141" target="SaZr0h4OyMX1n9Bar8NW-139">
          <mxGeometry relative="1" as="geometry" />
        </mxCell>
        <mxCell id="SaZr0h4OyMX1n9Bar8NW-147" value="" style="endArrow=classic;html=1;rounded=0;fontFamily=Helvetica;fontSize=12;fontColor=default;entryX=-0.006;entryY=0.3;entryDx=0;entryDy=0;entryPerimeter=0;dashed=1;dashPattern=1 1;" edge="1" parent="WIyWlLk6GJQsqaUBKTNV-1" target="SaZr0h4OyMX1n9Bar8NW-128">
          <mxGeometry width="50" height="50" relative="1" as="geometry">
            <mxPoint x="1640" y="770" as="sourcePoint" />
            <mxPoint x="1690" y="720" as="targetPoint" />
          </mxGeometry>
        </mxCell>
        <mxCell id="SaZr0h4OyMX1n9Bar8NW-149" value="资源读取" style="text;html=1;align=center;verticalAlign=middle;whiteSpace=wrap;rounded=0;fontSize=20;fontStyle=1" vertex="1" parent="WIyWlLk6GJQsqaUBKTNV-1">
          <mxGeometry x="1760" y="450" width="115" height="30" as="geometry" />
        </mxCell>
        <mxCell id="SaZr0h4OyMX1n9Bar8NW-151" value="" style="endArrow=classic;html=1;rounded=0;fontFamily=Helvetica;fontSize=12;fontColor=default;entryX=0.191;entryY=0.893;entryDx=0;entryDy=0;entryPerimeter=0;dashed=1;dashPattern=1 1;" edge="1" parent="WIyWlLk6GJQsqaUBKTNV-1" target="SaZr0h4OyMX1n9Bar8NW-71">
          <mxGeometry width="50" height="50" relative="1" as="geometry">
            <mxPoint x="1460" y="790" as="sourcePoint" />
            <mxPoint x="1510" y="740" as="targetPoint" />
          </mxGeometry>
        </mxCell>
        <mxCell id="SaZr0h4OyMX1n9Bar8NW-152" value="BeanFactoryPostProcessor" style="swimlane;fontStyle=1;childLayout=stackLayout;horizontal=1;startSize=30;horizontalStack=0;resizeParent=1;resizeParentMax=0;resizeLast=0;collapsible=1;marginBottom=0;whiteSpace=wrap;html=1;align=center;verticalAlign=middle;spacingLeft=4;spacingRight=4;fontFamily=Helvetica;fontSize=12;fillColor=#d5e8d4;strokeColor=#82b366;" vertex="1" parent="WIyWlLk6GJQsqaUBKTNV-1">
          <mxGeometry x="820" y="444" width="200" height="60" as="geometry" />
        </mxCell>
        <mxCell id="SaZr0h4OyMX1n9Bar8NW-153" value="BeanDefinition初始化之后执行" style="text;strokeColor=none;fillColor=none;align=center;verticalAlign=middle;spacingLeft=4;spacingRight=4;overflow=hidden;points=[[0,0.5],[1,0.5]];portConstraint=eastwest;rotatable=0;whiteSpace=wrap;html=1;fontFamily=Helvetica;fontSize=12;fontColor=default;" vertex="1" parent="SaZr0h4OyMX1n9Bar8NW-152">
          <mxGeometry y="30" width="200" height="30" as="geometry" />
        </mxCell>
        <mxCell id="SaZr0h4OyMX1n9Bar8NW-156" value="BeanPostProcessor" style="swimlane;fontStyle=1;childLayout=stackLayout;horizontal=1;startSize=30;horizontalStack=0;resizeParent=1;resizeParentMax=0;resizeLast=0;collapsible=1;marginBottom=0;whiteSpace=wrap;html=1;align=center;verticalAlign=middle;spacingLeft=4;spacingRight=4;fontFamily=Helvetica;fontSize=12;fillColor=#d5e8d4;strokeColor=#82b366;" vertex="1" parent="WIyWlLk6GJQsqaUBKTNV-1">
          <mxGeometry x="820" y="539" width="200" height="60" as="geometry" />
        </mxCell>
        <mxCell id="SaZr0h4OyMX1n9Bar8NW-157" value="bean的初始化之前和之后执行" style="text;strokeColor=none;fillColor=none;align=center;verticalAlign=middle;spacingLeft=4;spacingRight=4;overflow=hidden;points=[[0,0.5],[1,0.5]];portConstraint=eastwest;rotatable=0;whiteSpace=wrap;html=1;fontFamily=Helvetica;fontSize=12;fontColor=default;" vertex="1" parent="SaZr0h4OyMX1n9Bar8NW-156">
          <mxGeometry y="30" width="200" height="30" as="geometry" />
        </mxCell>
        <mxCell id="SaZr0h4OyMX1n9Bar8NW-71" value="" style="rounded=0;whiteSpace=wrap;html=1;fillColor=none;strokeWidth=2;" vertex="1" parent="WIyWlLk6GJQsqaUBKTNV-1">
          <mxGeometry x="50" y="210" width="680" height="280" as="geometry" />
        </mxCell>
        <mxCell id="SaZr0h4OyMX1n9Bar8NW-158" value="ApplicationContext" style="swimlane;fontStyle=1;childLayout=stackLayout;horizontal=1;startSize=30;horizontalStack=0;resizeParent=1;resizeParentMax=0;resizeLast=0;collapsible=1;marginBottom=0;whiteSpace=wrap;html=1;align=center;verticalAlign=middle;spacingLeft=4;spacingRight=4;fontFamily=Helvetica;fontSize=12;fillColor=#d5e8d4;strokeColor=#82b366;" vertex="1" parent="WIyWlLk6GJQsqaUBKTNV-1">
          <mxGeometry x="1080" y="384" width="200" height="80" as="geometry" />
        </mxCell>
        <mxCell id="SaZr0h4OyMX1n9Bar8NW-159" value="应用上下文，它是有加载配置到获取bean的全过程和所有配置，是获取bean的用户接口" style="text;strokeColor=none;fillColor=none;align=center;verticalAlign=middle;spacingLeft=4;spacingRight=4;overflow=hidden;points=[[0,0.5],[1,0.5]];portConstraint=eastwest;rotatable=0;whiteSpace=wrap;html=1;fontFamily=Helvetica;fontSize=12;fontColor=default;" vertex="1" parent="SaZr0h4OyMX1n9Bar8NW-158">
          <mxGeometry y="30" width="200" height="50" as="geometry" />
        </mxCell>
        <mxCell id="SaZr0h4OyMX1n9Bar8NW-160" value="BeanFactory" style="swimlane;fontStyle=1;childLayout=stackLayout;horizontal=1;startSize=30;horizontalStack=0;resizeParent=1;resizeParentMax=0;resizeLast=0;collapsible=1;marginBottom=0;whiteSpace=wrap;html=1;align=center;verticalAlign=middle;spacingLeft=4;spacingRight=4;fontFamily=Helvetica;fontSize=12;fillColor=#d5e8d4;strokeColor=#82b366;" vertex="1" parent="WIyWlLk6GJQsqaUBKTNV-1">
          <mxGeometry x="345" y="1350" width="180" height="70" as="geometry" />
        </mxCell>
        <mxCell id="SaZr0h4OyMX1n9Bar8NW-161" value="最基础的bean工厂，用于获取bean实例" style="text;strokeColor=none;fillColor=none;align=center;verticalAlign=middle;spacingLeft=4;spacingRight=4;overflow=hidden;points=[[0,0.5],[1,0.5]];portConstraint=eastwest;rotatable=0;whiteSpace=wrap;html=1;fontFamily=Helvetica;fontSize=12;fontColor=default;" vertex="1" parent="SaZr0h4OyMX1n9Bar8NW-160">
          <mxGeometry y="30" width="180" height="40" as="geometry" />
        </mxCell>
        <mxCell id="SaZr0h4OyMX1n9Bar8NW-164" value="ListableBeanFactory" style="swimlane;fontStyle=1;childLayout=stackLayout;horizontal=1;startSize=30;horizontalStack=0;resizeParent=1;resizeParentMax=0;resizeLast=0;collapsible=1;marginBottom=0;whiteSpace=wrap;html=1;align=center;verticalAlign=middle;spacingLeft=4;spacingRight=4;fontFamily=Helvetica;fontSize=12;fillColor=#d5e8d4;strokeColor=#82b366;" vertex="1" parent="WIyWlLk6GJQsqaUBKTNV-1">
          <mxGeometry x="140" y="1440" width="180" height="90" as="geometry" />
        </mxCell>
        <mxCell id="SaZr0h4OyMX1n9Bar8NW-165" value="提供根据Class类型获取bean集合和获取beanDefinition的名称集合的方法" style="text;strokeColor=none;fillColor=none;align=center;verticalAlign=middle;spacingLeft=4;spacingRight=4;overflow=hidden;points=[[0,0.5],[1,0.5]];portConstraint=eastwest;rotatable=0;whiteSpace=wrap;html=1;fontFamily=Helvetica;fontSize=12;fontColor=default;" vertex="1" parent="SaZr0h4OyMX1n9Bar8NW-164">
          <mxGeometry y="30" width="180" height="60" as="geometry" />
        </mxCell>
        <mxCell id="SaZr0h4OyMX1n9Bar8NW-166" value="HierarchicalBeanFactory" style="swimlane;fontStyle=1;childLayout=stackLayout;horizontal=1;startSize=30;horizontalStack=0;resizeParent=1;resizeParentMax=0;resizeLast=0;collapsible=1;marginBottom=0;whiteSpace=wrap;html=1;align=center;verticalAlign=middle;spacingLeft=4;spacingRight=4;fontFamily=Helvetica;fontSize=12;fillColor=#d5e8d4;strokeColor=#82b366;" vertex="1" parent="WIyWlLk6GJQsqaUBKTNV-1">
          <mxGeometry x="345" y="1450" width="180" height="65" as="geometry">
            <mxRectangle x="280" y="1450" width="180" height="30" as="alternateBounds" />
          </mxGeometry>
        </mxCell>
        <mxCell id="SaZr0h4OyMX1n9Bar8NW-168" value="AutowireCapableBeanFactory" style="swimlane;fontStyle=1;childLayout=stackLayout;horizontal=1;startSize=30;horizontalStack=0;resizeParent=1;resizeParentMax=0;resizeLast=0;collapsible=1;marginBottom=0;whiteSpace=wrap;html=1;align=center;verticalAlign=middle;spacingLeft=4;spacingRight=4;fontFamily=Helvetica;fontSize=12;fillColor=#d5e8d4;strokeColor=#82b366;" vertex="1" parent="WIyWlLk6GJQsqaUBKTNV-1">
          <mxGeometry x="545" y="1450" width="200" height="70" as="geometry" />
        </mxCell>
        <mxCell id="SaZr0h4OyMX1n9Bar8NW-169" value="能够自动装配的bean工厂，执行BeanPostProcessor相关方法" style="text;strokeColor=none;fillColor=none;align=center;verticalAlign=middle;spacingLeft=4;spacingRight=4;overflow=hidden;points=[[0,0.5],[1,0.5]];portConstraint=eastwest;rotatable=0;whiteSpace=wrap;html=1;fontFamily=Helvetica;fontSize=12;fontColor=default;" vertex="1" parent="SaZr0h4OyMX1n9Bar8NW-168">
          <mxGeometry y="30" width="200" height="40" as="geometry" />
        </mxCell>
        <mxCell id="SaZr0h4OyMX1n9Bar8NW-171" style="edgeStyle=orthogonalEdgeStyle;rounded=0;orthogonalLoop=1;jettySize=auto;html=1;exitX=0.5;exitY=0;exitDx=0;exitDy=0;entryX=-0.005;entryY=0.134;entryDx=0;entryDy=0;entryPerimeter=0;fontFamily=Helvetica;fontSize=12;fontColor=default;" edge="1" parent="WIyWlLk6GJQsqaUBKTNV-1" source="SaZr0h4OyMX1n9Bar8NW-164" target="SaZr0h4OyMX1n9Bar8NW-161">
          <mxGeometry relative="1" as="geometry" />
        </mxCell>
        <mxCell id="SaZr0h4OyMX1n9Bar8NW-172" style="edgeStyle=orthogonalEdgeStyle;rounded=0;orthogonalLoop=1;jettySize=auto;html=1;exitX=0.5;exitY=0;exitDx=0;exitDy=0;entryX=0.498;entryY=0.989;entryDx=0;entryDy=0;entryPerimeter=0;fontFamily=Helvetica;fontSize=12;fontColor=default;" edge="1" parent="WIyWlLk6GJQsqaUBKTNV-1" source="SaZr0h4OyMX1n9Bar8NW-166" target="SaZr0h4OyMX1n9Bar8NW-161">
          <mxGeometry relative="1" as="geometry" />
        </mxCell>
        <mxCell id="SaZr0h4OyMX1n9Bar8NW-174" style="edgeStyle=orthogonalEdgeStyle;rounded=0;orthogonalLoop=1;jettySize=auto;html=1;exitX=0.5;exitY=0;exitDx=0;exitDy=0;entryX=0.981;entryY=0.042;entryDx=0;entryDy=0;entryPerimeter=0;fontFamily=Helvetica;fontSize=12;fontColor=default;" edge="1" parent="WIyWlLk6GJQsqaUBKTNV-1" source="SaZr0h4OyMX1n9Bar8NW-168" target="SaZr0h4OyMX1n9Bar8NW-161">
          <mxGeometry relative="1" as="geometry" />
        </mxCell>
        <mxCell id="SaZr0h4OyMX1n9Bar8NW-180" style="edgeStyle=orthogonalEdgeStyle;rounded=0;orthogonalLoop=1;jettySize=auto;html=1;exitX=0.5;exitY=0;exitDx=0;exitDy=0;entryX=0.5;entryY=1;entryDx=0;entryDy=0;fontFamily=Helvetica;fontSize=12;fontColor=default;" edge="1" parent="WIyWlLk6GJQsqaUBKTNV-1" source="SaZr0h4OyMX1n9Bar8NW-178" target="SaZr0h4OyMX1n9Bar8NW-166">
          <mxGeometry relative="1" as="geometry" />
        </mxCell>
        <mxCell id="SaZr0h4OyMX1n9Bar8NW-204" style="edgeStyle=orthogonalEdgeStyle;rounded=0;orthogonalLoop=1;jettySize=auto;html=1;exitX=0.75;exitY=0;exitDx=0;exitDy=0;fontFamily=Helvetica;fontSize=12;fontColor=default;dashed=1;dashPattern=1 1;" edge="1" parent="WIyWlLk6GJQsqaUBKTNV-1" source="SaZr0h4OyMX1n9Bar8NW-178">
          <mxGeometry relative="1" as="geometry">
            <mxPoint x="880" y="600" as="targetPoint" />
            <Array as="points">
              <mxPoint x="530" y="1570" />
              <mxPoint x="530" y="1230" />
              <mxPoint x="690" y="1230" />
              <mxPoint x="690" y="890" />
              <mxPoint x="750" y="890" />
              <mxPoint x="750" y="600" />
              <mxPoint x="880" y="600" />
            </Array>
          </mxGeometry>
        </mxCell>
        <mxCell id="SaZr0h4OyMX1n9Bar8NW-178" value="ConfigurableBeanFactory" style="swimlane;fontStyle=1;childLayout=stackLayout;horizontal=1;startSize=30;horizontalStack=0;resizeParent=1;resizeParentMax=0;resizeLast=0;collapsible=1;marginBottom=0;whiteSpace=wrap;html=1;align=center;verticalAlign=middle;spacingLeft=4;spacingRight=4;fontFamily=Helvetica;fontSize=12;fillColor=#d5e8d4;strokeColor=#82b366;" vertex="1" parent="WIyWlLk6GJQsqaUBKTNV-1">
          <mxGeometry x="335" y="1570" width="200" height="70" as="geometry" />
        </mxCell>
        <mxCell id="SaZr0h4OyMX1n9Bar8NW-179" value="提供配置，注册添加BeanPostProcessor" style="text;strokeColor=none;fillColor=none;align=center;verticalAlign=middle;spacingLeft=4;spacingRight=4;overflow=hidden;points=[[0,0.5],[1,0.5]];portConstraint=eastwest;rotatable=0;whiteSpace=wrap;html=1;fontFamily=Helvetica;fontSize=12;fontColor=default;" vertex="1" parent="SaZr0h4OyMX1n9Bar8NW-178">
          <mxGeometry y="30" width="200" height="40" as="geometry" />
        </mxCell>
        <mxCell id="SaZr0h4OyMX1n9Bar8NW-181" value="ConfigurableListableBeanFactory" style="swimlane;fontStyle=1;childLayout=stackLayout;horizontal=1;startSize=30;horizontalStack=0;resizeParent=1;resizeParentMax=0;resizeLast=0;collapsible=1;marginBottom=0;whiteSpace=wrap;html=1;align=center;verticalAlign=middle;spacingLeft=4;spacingRight=4;fontFamily=Helvetica;fontSize=12;fillColor=#d5e8d4;strokeColor=#82b366;" vertex="1" parent="WIyWlLk6GJQsqaUBKTNV-1">
          <mxGeometry x="325" y="1680" width="220" height="70" as="geometry" />
        </mxCell>
        <mxCell id="SaZr0h4OyMX1n9Bar8NW-182" value="最终工厂，可以获取BeanDefinition信息并且提前实例化bean" style="text;strokeColor=none;fillColor=none;align=center;verticalAlign=middle;spacingLeft=4;spacingRight=4;overflow=hidden;points=[[0,0.5],[1,0.5]];portConstraint=eastwest;rotatable=0;whiteSpace=wrap;html=1;fontFamily=Helvetica;fontSize=12;fontColor=default;" vertex="1" parent="SaZr0h4OyMX1n9Bar8NW-181">
          <mxGeometry y="30" width="220" height="40" as="geometry" />
        </mxCell>
        <mxCell id="SaZr0h4OyMX1n9Bar8NW-183" style="edgeStyle=orthogonalEdgeStyle;rounded=0;orthogonalLoop=1;jettySize=auto;html=1;exitX=0.5;exitY=0;exitDx=0;exitDy=0;entryX=0.498;entryY=1;entryDx=0;entryDy=0;entryPerimeter=0;fontFamily=Helvetica;fontSize=12;fontColor=default;" edge="1" parent="WIyWlLk6GJQsqaUBKTNV-1" source="SaZr0h4OyMX1n9Bar8NW-181" target="SaZr0h4OyMX1n9Bar8NW-179">
          <mxGeometry relative="1" as="geometry" />
        </mxCell>
        <mxCell id="SaZr0h4OyMX1n9Bar8NW-184" style="edgeStyle=orthogonalEdgeStyle;rounded=0;orthogonalLoop=1;jettySize=auto;html=1;exitX=0;exitY=0.5;exitDx=0;exitDy=0;entryX=0.459;entryY=0.984;entryDx=0;entryDy=0;entryPerimeter=0;fontFamily=Helvetica;fontSize=12;fontColor=default;" edge="1" parent="WIyWlLk6GJQsqaUBKTNV-1" source="SaZr0h4OyMX1n9Bar8NW-182" target="SaZr0h4OyMX1n9Bar8NW-165">
          <mxGeometry relative="1" as="geometry" />
        </mxCell>
        <mxCell id="SaZr0h4OyMX1n9Bar8NW-185" style="edgeStyle=orthogonalEdgeStyle;rounded=0;orthogonalLoop=1;jettySize=auto;html=1;exitX=1;exitY=0.5;exitDx=0;exitDy=0;entryX=0.519;entryY=1.016;entryDx=0;entryDy=0;entryPerimeter=0;fontFamily=Helvetica;fontSize=12;fontColor=default;" edge="1" parent="WIyWlLk6GJQsqaUBKTNV-1" source="SaZr0h4OyMX1n9Bar8NW-182" target="SaZr0h4OyMX1n9Bar8NW-169">
          <mxGeometry relative="1" as="geometry" />
        </mxCell>
        <mxCell id="SaZr0h4OyMX1n9Bar8NW-186" value="AbstractBeanFactory" style="swimlane;fontStyle=1;childLayout=stackLayout;horizontal=1;startSize=30;horizontalStack=0;resizeParent=1;resizeParentMax=0;resizeLast=0;collapsible=1;marginBottom=0;whiteSpace=wrap;html=1;align=center;verticalAlign=middle;spacingLeft=4;spacingRight=4;fontFamily=Helvetica;fontSize=12;fillColor=#f8cecc;strokeColor=#b85450;" vertex="1" parent="WIyWlLk6GJQsqaUBKTNV-1">
          <mxGeometry x="850" y="1350" width="180" height="110" as="geometry" />
        </mxCell>
        <mxCell id="SaZr0h4OyMX1n9Bar8NW-187" value="实现getBean方法和通过List添加BeanPostProcessor方法；定义获取BeanDefinition和具体创建bean的抽象方法；继承单例bean类为了获取和添加单例bean" style="text;strokeColor=none;fillColor=none;align=center;verticalAlign=middle;spacingLeft=4;spacingRight=4;overflow=hidden;points=[[0,0.5],[1,0.5]];portConstraint=eastwest;rotatable=0;whiteSpace=wrap;html=1;fontFamily=Helvetica;fontSize=12;fontColor=default;" vertex="1" parent="SaZr0h4OyMX1n9Bar8NW-186">
          <mxGeometry y="30" width="180" height="80" as="geometry" />
        </mxCell>
        <mxCell id="SaZr0h4OyMX1n9Bar8NW-190" style="edgeStyle=orthogonalEdgeStyle;rounded=0;orthogonalLoop=1;jettySize=auto;html=1;entryX=1;entryY=0.5;entryDx=0;entryDy=0;fontFamily=Helvetica;fontSize=12;fontColor=default;dashed=1;" edge="1" parent="WIyWlLk6GJQsqaUBKTNV-1" target="SaZr0h4OyMX1n9Bar8NW-179">
          <mxGeometry relative="1" as="geometry">
            <mxPoint x="850" y="1400" as="sourcePoint" />
            <Array as="points">
              <mxPoint x="770" y="1400" />
              <mxPoint x="770" y="1620" />
            </Array>
          </mxGeometry>
        </mxCell>
        <mxCell id="SaZr0h4OyMX1n9Bar8NW-191" value="AbstractAutowireCapableBeanFactory" style="swimlane;fontStyle=1;childLayout=stackLayout;horizontal=1;startSize=30;horizontalStack=0;resizeParent=1;resizeParentMax=0;resizeLast=0;collapsible=1;marginBottom=0;whiteSpace=wrap;html=1;align=center;verticalAlign=middle;spacingLeft=4;spacingRight=4;fontFamily=Helvetica;fontSize=12;fillColor=#f8cecc;strokeColor=#b85450;" vertex="1" parent="WIyWlLk6GJQsqaUBKTNV-1">
          <mxGeometry x="810" y="1515" width="260" height="70" as="geometry" />
        </mxCell>
        <mxCell id="SaZr0h4OyMX1n9Bar8NW-192" value="实现具体创建bean的方法，注入实例化策略实例化bean，添加属性，初始化bean" style="text;strokeColor=none;fillColor=none;align=center;verticalAlign=middle;spacingLeft=4;spacingRight=4;overflow=hidden;points=[[0,0.5],[1,0.5]];portConstraint=eastwest;rotatable=0;whiteSpace=wrap;html=1;fontFamily=Helvetica;fontSize=12;fontColor=default;" vertex="1" parent="SaZr0h4OyMX1n9Bar8NW-191">
          <mxGeometry y="30" width="260" height="40" as="geometry" />
        </mxCell>
        <mxCell id="SaZr0h4OyMX1n9Bar8NW-193" style="edgeStyle=orthogonalEdgeStyle;rounded=0;orthogonalLoop=1;jettySize=auto;html=1;exitX=0.5;exitY=0;exitDx=0;exitDy=0;entryX=0.501;entryY=1;entryDx=0;entryDy=0;entryPerimeter=0;fontFamily=Helvetica;fontSize=12;fontColor=default;" edge="1" parent="WIyWlLk6GJQsqaUBKTNV-1" source="SaZr0h4OyMX1n9Bar8NW-191" target="SaZr0h4OyMX1n9Bar8NW-187">
          <mxGeometry relative="1" as="geometry" />
        </mxCell>
        <mxCell id="SaZr0h4OyMX1n9Bar8NW-194" style="edgeStyle=orthogonalEdgeStyle;rounded=0;orthogonalLoop=1;jettySize=auto;html=1;exitX=0;exitY=0.5;exitDx=0;exitDy=0;entryX=0.825;entryY=1;entryDx=0;entryDy=0;entryPerimeter=0;fontFamily=Helvetica;fontSize=12;fontColor=default;dashed=1;" edge="1" parent="WIyWlLk6GJQsqaUBKTNV-1" source="SaZr0h4OyMX1n9Bar8NW-192" target="SaZr0h4OyMX1n9Bar8NW-169">
          <mxGeometry relative="1" as="geometry" />
        </mxCell>
        <mxCell id="SaZr0h4OyMX1n9Bar8NW-196" style="edgeStyle=orthogonalEdgeStyle;rounded=0;orthogonalLoop=1;jettySize=auto;html=1;exitX=1;exitY=0.5;exitDx=0;exitDy=0;entryX=0.478;entryY=0.467;entryDx=0;entryDy=0;entryPerimeter=0;fontFamily=Helvetica;fontSize=12;fontColor=default;dashed=1;dashPattern=1 1;" edge="1" parent="WIyWlLk6GJQsqaUBKTNV-1" source="SaZr0h4OyMX1n9Bar8NW-192" target="SaZr0h4OyMX1n9Bar8NW-21">
          <mxGeometry relative="1" as="geometry" />
        </mxCell>
        <mxCell id="SaZr0h4OyMX1n9Bar8NW-199" style="edgeStyle=orthogonalEdgeStyle;rounded=0;orthogonalLoop=1;jettySize=auto;html=1;exitX=0.5;exitY=0;exitDx=0;exitDy=0;fontFamily=Helvetica;fontSize=12;fontColor=default;" edge="1" parent="WIyWlLk6GJQsqaUBKTNV-1" source="SaZr0h4OyMX1n9Bar8NW-197">
          <mxGeometry relative="1" as="geometry">
            <mxPoint x="939.5652173913045" y="1590" as="targetPoint" />
          </mxGeometry>
        </mxCell>
        <mxCell id="SaZr0h4OyMX1n9Bar8NW-197" value="DefaultListableBeanFactory" style="swimlane;fontStyle=1;childLayout=stackLayout;horizontal=1;startSize=30;horizontalStack=0;resizeParent=1;resizeParentMax=0;resizeLast=0;collapsible=1;marginBottom=0;whiteSpace=wrap;html=1;align=center;verticalAlign=middle;spacingLeft=4;spacingRight=4;fontFamily=Helvetica;fontSize=12;fillColor=#dae8fc;strokeColor=#6c8ebf;" vertex="1" parent="WIyWlLk6GJQsqaUBKTNV-1">
          <mxGeometry x="810" y="1650" width="260" height="90" as="geometry" />
        </mxCell>
        <mxCell id="SaZr0h4OyMX1n9Bar8NW-198" value="最终工厂，是所有注册器和工厂的集成，主要负责BeanDefinition的注册和获取，以及实现提前实例化bean的方法" style="text;strokeColor=none;fillColor=none;align=center;verticalAlign=middle;spacingLeft=4;spacingRight=4;overflow=hidden;points=[[0,0.5],[1,0.5]];portConstraint=eastwest;rotatable=0;whiteSpace=wrap;html=1;fontFamily=Helvetica;fontSize=12;fontColor=default;" vertex="1" parent="SaZr0h4OyMX1n9Bar8NW-197">
          <mxGeometry y="30" width="260" height="60" as="geometry" />
        </mxCell>
        <mxCell id="SaZr0h4OyMX1n9Bar8NW-200" style="edgeStyle=orthogonalEdgeStyle;rounded=0;orthogonalLoop=1;jettySize=auto;html=1;exitX=0;exitY=0.5;exitDx=0;exitDy=0;entryX=0.493;entryY=1.008;entryDx=0;entryDy=0;entryPerimeter=0;fontFamily=Helvetica;fontSize=12;fontColor=default;dashed=1;" edge="1" parent="WIyWlLk6GJQsqaUBKTNV-1" source="SaZr0h4OyMX1n9Bar8NW-198" target="SaZr0h4OyMX1n9Bar8NW-182">
          <mxGeometry relative="1" as="geometry" />
        </mxCell>
        <mxCell id="SaZr0h4OyMX1n9Bar8NW-201" style="edgeStyle=orthogonalEdgeStyle;rounded=0;orthogonalLoop=1;jettySize=auto;html=1;exitX=0;exitY=0.5;exitDx=0;exitDy=0;entryX=0.103;entryY=0.893;entryDx=0;entryDy=0;entryPerimeter=0;fontFamily=Helvetica;fontSize=12;fontColor=default;dashed=1;" edge="1" parent="WIyWlLk6GJQsqaUBKTNV-1" source="SaZr0h4OyMX1n9Bar8NW-198" target="SaZr0h4OyMX1n9Bar8NW-71">
          <mxGeometry relative="1" as="geometry">
            <Array as="points">
              <mxPoint x="810" y="1720" />
              <mxPoint x="680" y="1720" />
              <mxPoint x="680" y="1770" />
              <mxPoint x="120" y="1770" />
            </Array>
          </mxGeometry>
        </mxCell>
        <mxCell id="SaZr0h4OyMX1n9Bar8NW-202" style="edgeStyle=orthogonalEdgeStyle;rounded=0;orthogonalLoop=1;jettySize=auto;html=1;exitX=0.25;exitY=0;exitDx=0;exitDy=0;entryX=0.661;entryY=0.783;entryDx=0;entryDy=0;entryPerimeter=0;fontFamily=Helvetica;fontSize=12;fontColor=default;" edge="1" parent="WIyWlLk6GJQsqaUBKTNV-1" source="SaZr0h4OyMX1n9Bar8NW-186" target="SaZr0h4OyMX1n9Bar8NW-86">
          <mxGeometry relative="1" as="geometry" />
        </mxCell>
        <mxCell id="SaZr0h4OyMX1n9Bar8NW-203" style="edgeStyle=orthogonalEdgeStyle;rounded=0;orthogonalLoop=1;jettySize=auto;html=1;entryX=0.272;entryY=1.025;entryDx=0;entryDy=0;entryPerimeter=0;fontFamily=Helvetica;fontSize=12;fontColor=default;dashed=1;dashPattern=1 1;" edge="1" parent="WIyWlLk6GJQsqaUBKTNV-1" target="SaZr0h4OyMX1n9Bar8NW-157">
          <mxGeometry relative="1" as="geometry">
            <mxPoint x="670" y="1450" as="sourcePoint" />
            <Array as="points">
              <mxPoint x="670" y="900" />
              <mxPoint x="760" y="900" />
              <mxPoint x="760" y="600" />
            </Array>
          </mxGeometry>
        </mxCell>
        <mxCell id="SaZr0h4OyMX1n9Bar8NW-205" style="edgeStyle=orthogonalEdgeStyle;rounded=0;orthogonalLoop=1;jettySize=auto;html=1;exitX=0.5;exitY=0;exitDx=0;exitDy=0;entryX=0.509;entryY=0.746;entryDx=0;entryDy=0;entryPerimeter=0;fontFamily=Helvetica;fontSize=12;fontColor=default;dashed=1;dashPattern=1 1;" edge="1" parent="WIyWlLk6GJQsqaUBKTNV-1" source="SaZr0h4OyMX1n9Bar8NW-107" target="SaZr0h4OyMX1n9Bar8NW-101">
          <mxGeometry relative="1" as="geometry">
            <Array as="points">
              <mxPoint x="1820" y="490" />
              <mxPoint x="1940" y="490" />
            </Array>
          </mxGeometry>
        </mxCell>
        <mxCell id="SaZr0h4OyMX1n9Bar8NW-148" value="" style="rounded=0;whiteSpace=wrap;html=1;align=center;verticalAlign=middle;spacingLeft=4;spacingRight=4;fontFamily=Helvetica;fontSize=12;fontColor=default;fillColor=none;gradientColor=none;strokeWidth=2;" vertex="1" parent="WIyWlLk6GJQsqaUBKTNV-1">
          <mxGeometry x="1390" y="430" width="900" height="420" as="geometry" />
        </mxCell>
        <mxCell id="SaZr0h4OyMX1n9Bar8NW-206" value="" style="shape=flexArrow;endArrow=classic;html=1;rounded=0;fontFamily=Helvetica;fontSize=12;fontColor=default;width=10.526315789473685;endSize=6.947368421052632;" edge="1" parent="WIyWlLk6GJQsqaUBKTNV-1">
          <mxGeometry width="50" height="50" relative="1" as="geometry">
            <mxPoint x="505" y="759.47" as="sourcePoint" />
            <mxPoint x="595" y="700" as="targetPoint" />
          </mxGeometry>
        </mxCell>
        <mxCell id="SaZr0h4OyMX1n9Bar8NW-207" value="" style="shape=flexArrow;endArrow=classic;html=1;rounded=0;fontFamily=Helvetica;fontSize=12;fontColor=default;" edge="1" parent="WIyWlLk6GJQsqaUBKTNV-1">
          <mxGeometry width="50" height="50" relative="1" as="geometry">
            <mxPoint x="508.75" y="800" as="sourcePoint" />
            <mxPoint x="561.25" y="880" as="targetPoint" />
          </mxGeometry>
        </mxCell>
        <mxCell id="SaZr0h4OyMX1n9Bar8NW-208" value="" style="shape=flexArrow;endArrow=classic;html=1;rounded=0;fontFamily=Helvetica;fontSize=12;fontColor=default;" edge="1" parent="WIyWlLk6GJQsqaUBKTNV-1">
          <mxGeometry width="50" height="50" relative="1" as="geometry">
            <mxPoint x="1120" y="44.47" as="sourcePoint" />
            <mxPoint x="1200" y="44.47" as="targetPoint" />
          </mxGeometry>
        </mxCell>
        <mxCell id="SaZr0h4OyMX1n9Bar8NW-209" value="范围引用" style="text;html=1;align=center;verticalAlign=middle;whiteSpace=wrap;rounded=0;fontSize=14;" vertex="1" parent="WIyWlLk6GJQsqaUBKTNV-1">
          <mxGeometry x="1120" y="50" width="60" height="30" as="geometry" />
        </mxCell>
        <mxCell id="SaZr0h4OyMX1n9Bar8NW-210" value="" style="shape=flexArrow;endArrow=classic;html=1;rounded=0;fontFamily=Helvetica;fontSize=12;fontColor=default;" edge="1" parent="WIyWlLk6GJQsqaUBKTNV-1">
          <mxGeometry width="50" height="50" relative="1" as="geometry">
            <mxPoint x="507.78" y="420" as="sourcePoint" />
            <mxPoint x="580.0022222222224" y="470.0000000000002" as="targetPoint" />
          </mxGeometry>
        </mxCell>
        <mxCell id="SaZr0h4OyMX1n9Bar8NW-211" value="" style="rounded=0;whiteSpace=wrap;html=1;align=center;verticalAlign=middle;spacingLeft=4;spacingRight=4;fontFamily=Helvetica;fontSize=12;fontColor=default;fillColor=none;gradientColor=none;strokeWidth=2;" vertex="1" parent="WIyWlLk6GJQsqaUBKTNV-1">
          <mxGeometry x="90" y="1260" width="1020" height="530" as="geometry" />
        </mxCell>
        <mxCell id="SaZr0h4OyMX1n9Bar8NW-212" value="Bean实例Factory工厂管理" style="text;html=1;align=center;verticalAlign=middle;whiteSpace=wrap;rounded=0;fontSize=20;fontStyle=1" vertex="1" parent="WIyWlLk6GJQsqaUBKTNV-1">
          <mxGeometry x="175" y="1290" width="270" height="30" as="geometry" />
        </mxCell>
        <mxCell id="SaZr0h4OyMX1n9Bar8NW-213" style="edgeStyle=elbowEdgeStyle;rounded=0;orthogonalLoop=1;jettySize=auto;html=1;exitX=0.005;exitY=0.32;exitDx=0;exitDy=0;fontFamily=Helvetica;fontSize=12;fontColor=default;exitPerimeter=0;" edge="1" parent="WIyWlLk6GJQsqaUBKTNV-1" source="SaZr0h4OyMX1n9Bar8NW-159">
          <mxGeometry relative="1" as="geometry">
            <mxPoint x="1070" y="444" as="sourcePoint" />
            <mxPoint x="210" y="1440" as="targetPoint" />
            <Array as="points">
              <mxPoint x="660" y="930" />
            </Array>
          </mxGeometry>
        </mxCell>
        <mxCell id="SaZr0h4OyMX1n9Bar8NW-214" value="ConfigurableApplicationContext" style="swimlane;fontStyle=1;childLayout=stackLayout;horizontal=1;startSize=30;horizontalStack=0;resizeParent=1;resizeParentMax=0;resizeLast=0;collapsible=1;marginBottom=0;whiteSpace=wrap;html=1;align=center;verticalAlign=middle;spacingLeft=4;spacingRight=4;fontFamily=Helvetica;fontSize=12;fillColor=#d5e8d4;strokeColor=#82b366;" vertex="1" parent="WIyWlLk6GJQsqaUBKTNV-1">
          <mxGeometry x="1045" y="550" width="220" height="70" as="geometry" />
        </mxCell>
        <mxCell id="SaZr0h4OyMX1n9Bar8NW-215" value="定义refresh方法" style="text;strokeColor=none;fillColor=none;align=center;verticalAlign=middle;spacingLeft=4;spacingRight=4;overflow=hidden;points=[[0,0.5],[1,0.5]];portConstraint=eastwest;rotatable=0;whiteSpace=wrap;html=1;fontFamily=Helvetica;fontSize=12;fontColor=default;" vertex="1" parent="SaZr0h4OyMX1n9Bar8NW-214">
          <mxGeometry y="30" width="220" height="40" as="geometry" />
        </mxCell>
        <mxCell id="SaZr0h4OyMX1n9Bar8NW-217" value="AbstractApplicationContext" style="swimlane;fontStyle=1;childLayout=stackLayout;horizontal=1;startSize=30;horizontalStack=0;resizeParent=1;resizeParentMax=0;resizeLast=0;collapsible=1;marginBottom=0;whiteSpace=wrap;html=1;align=center;verticalAlign=middle;spacingLeft=4;spacingRight=4;fontFamily=Helvetica;fontSize=12;fillColor=#f8cecc;strokeColor=#b85450;" vertex="1" parent="WIyWlLk6GJQsqaUBKTNV-1">
          <mxGeometry x="1000" y="760" width="310" height="160" as="geometry" />
        </mxCell>
        <mxCell id="SaZr0h4OyMX1n9Bar8NW-218" value="定义模板模式的refresh方法具体逻辑&lt;div style=&quot;text-align: left;&quot;&gt;1.创建BeanFactory，并加载BeanDefinition&lt;/div&gt;&lt;div style=&quot;text-align: left;&quot;&gt;2.获取BeanFactory&lt;/div&gt;&lt;div style=&quot;text-align: left;&quot;&gt;3.在Bean实例化之前，执行BeanFactoryPostProcessor&lt;/div&gt;&lt;div style=&quot;text-align: left;&quot;&gt;4.BeanPostProcessor需要提前于其他Bean对象实例化&amp;nbsp; &amp;nbsp; &amp;nbsp; &amp;nbsp;之前执行注册操作&lt;/div&gt;&lt;div style=&quot;text-align: left;&quot;&gt;5.提前实例化单例化Bean对象&lt;/div&gt;&lt;div style=&quot;text-align: left;&quot;&gt;&lt;span style=&quot;white-space: pre;&quot;&gt;&#x9;&lt;/span&gt;这里实现后面三个方法，前面两个方法为抽象方法&lt;br&gt;&lt;/div&gt;" style="text;strokeColor=none;fillColor=none;align=center;verticalAlign=top;spacingLeft=4;spacingRight=4;overflow=hidden;points=[[0,0.5],[1,0.5]];portConstraint=eastwest;rotatable=0;whiteSpace=wrap;html=1;fontFamily=Helvetica;fontSize=12;fontColor=default;" vertex="1" parent="SaZr0h4OyMX1n9Bar8NW-217">
          <mxGeometry y="30" width="310" height="130" as="geometry" />
        </mxCell>
        <mxCell id="SaZr0h4OyMX1n9Bar8NW-219" style="edgeStyle=orthogonalEdgeStyle;rounded=0;orthogonalLoop=1;jettySize=auto;html=1;entryX=0.4;entryY=0.857;entryDx=0;entryDy=0;entryPerimeter=0;fontFamily=Helvetica;fontSize=12;fontColor=default;" edge="1" parent="WIyWlLk6GJQsqaUBKTNV-1" target="SaZr0h4OyMX1n9Bar8NW-148">
          <mxGeometry relative="1" as="geometry">
            <mxPoint x="1310" y="900" as="sourcePoint" />
            <Array as="points">
              <mxPoint x="1309" y="900" />
              <mxPoint x="1750" y="900" />
            </Array>
          </mxGeometry>
        </mxCell>
        <mxCell id="SaZr0h4OyMX1n9Bar8NW-220" style="edgeStyle=orthogonalEdgeStyle;rounded=0;orthogonalLoop=1;jettySize=auto;html=1;exitX=0.5;exitY=0;exitDx=0;exitDy=0;entryX=0.5;entryY=1;entryDx=0;entryDy=0;entryPerimeter=0;fontFamily=Helvetica;fontSize=12;fontColor=default;dashed=1;" edge="1" parent="WIyWlLk6GJQsqaUBKTNV-1" source="SaZr0h4OyMX1n9Bar8NW-217" target="SaZr0h4OyMX1n9Bar8NW-215">
          <mxGeometry relative="1" as="geometry" />
        </mxCell>
        <mxCell id="SaZr0h4OyMX1n9Bar8NW-221" style="edgeStyle=orthogonalEdgeStyle;rounded=0;orthogonalLoop=1;jettySize=auto;html=1;exitX=0.5;exitY=0;exitDx=0;exitDy=0;entryX=0.378;entryY=1;entryDx=0;entryDy=0;entryPerimeter=0;fontFamily=Helvetica;fontSize=12;fontColor=default;" edge="1" parent="WIyWlLk6GJQsqaUBKTNV-1" source="SaZr0h4OyMX1n9Bar8NW-214" target="SaZr0h4OyMX1n9Bar8NW-159">
          <mxGeometry relative="1" as="geometry" />
        </mxCell>
        <mxCell id="SaZr0h4OyMX1n9Bar8NW-222" value="AbstractRefreshableApplicationContext" style="swimlane;fontStyle=1;childLayout=stackLayout;horizontal=1;startSize=30;horizontalStack=0;resizeParent=1;resizeParentMax=0;resizeLast=0;collapsible=1;marginBottom=0;whiteSpace=wrap;html=1;align=center;verticalAlign=middle;spacingLeft=4;spacingRight=4;fontFamily=Helvetica;fontSize=12;fillColor=#f8cecc;strokeColor=#b85450;" vertex="1" parent="WIyWlLk6GJQsqaUBKTNV-1">
          <mxGeometry x="1045" y="960" width="265" height="80" as="geometry" />
        </mxCell>
        <mxCell id="SaZr0h4OyMX1n9Bar8NW-223" value="注入属性DefaultListableBeanFactory&lt;div&gt;创建BeanFactory的同时定义加载BeanDefinition的抽象方法&lt;/div&gt;" style="text;strokeColor=none;fillColor=none;align=center;verticalAlign=middle;spacingLeft=4;spacingRight=4;overflow=hidden;points=[[0,0.5],[1,0.5]];portConstraint=eastwest;rotatable=0;whiteSpace=wrap;html=1;fontFamily=Helvetica;fontSize=12;fontColor=default;" vertex="1" parent="SaZr0h4OyMX1n9Bar8NW-222">
          <mxGeometry y="30" width="265" height="50" as="geometry" />
        </mxCell>
        <mxCell id="SaZr0h4OyMX1n9Bar8NW-227" value="AbstractXmlApplicationContext" style="swimlane;fontStyle=1;childLayout=stackLayout;horizontal=1;startSize=30;horizontalStack=0;resizeParent=1;resizeParentMax=0;resizeLast=0;collapsible=1;marginBottom=0;whiteSpace=wrap;html=1;align=center;verticalAlign=middle;spacingLeft=4;spacingRight=4;fontFamily=Helvetica;fontSize=12;fillColor=#f8cecc;strokeColor=#b85450;" vertex="1" parent="WIyWlLk6GJQsqaUBKTNV-1">
          <mxGeometry x="1060" y="1089" width="265" height="120" as="geometry" />
        </mxCell>
        <mxCell id="SaZr0h4OyMX1n9Bar8NW-228" value="实现加载BeanDefinition方法，因为之前继承了DefaultResourceLoader方法，本身就是ResourceLoader，通过XmlBeanDefinitionReader来加载BeanDefinition。这里定义获取配置路径的抽象方法" style="text;strokeColor=none;fillColor=none;align=center;verticalAlign=middle;spacingLeft=4;spacingRight=4;overflow=hidden;points=[[0,0.5],[1,0.5]];portConstraint=eastwest;rotatable=0;whiteSpace=wrap;html=1;fontFamily=Helvetica;fontSize=12;fontColor=default;" vertex="1" parent="SaZr0h4OyMX1n9Bar8NW-227">
          <mxGeometry y="30" width="265" height="90" as="geometry" />
        </mxCell>
        <mxCell id="SaZr0h4OyMX1n9Bar8NW-230" style="edgeStyle=orthogonalEdgeStyle;rounded=0;orthogonalLoop=1;jettySize=auto;html=1;exitX=1;exitY=0.5;exitDx=0;exitDy=0;fontFamily=Helvetica;fontSize=12;fontColor=default;dashed=1;dashPattern=1 1;" edge="1" parent="WIyWlLk6GJQsqaUBKTNV-1" source="SaZr0h4OyMX1n9Bar8NW-228">
          <mxGeometry relative="1" as="geometry">
            <mxPoint x="1460" y="810" as="targetPoint" />
            <Array as="points">
              <mxPoint x="1400" y="1145" />
              <mxPoint x="1400" y="810" />
            </Array>
          </mxGeometry>
        </mxCell>
        <mxCell id="SaZr0h4OyMX1n9Bar8NW-231" value="ClassPathXmlApplicationContext" style="swimlane;fontStyle=1;childLayout=stackLayout;horizontal=1;startSize=30;horizontalStack=0;resizeParent=1;resizeParentMax=0;resizeLast=0;collapsible=1;marginBottom=0;whiteSpace=wrap;html=1;align=center;verticalAlign=middle;spacingLeft=4;spacingRight=4;fontFamily=Helvetica;fontSize=12;fillColor=#dae8fc;strokeColor=#6c8ebf;" vertex="1" parent="WIyWlLk6GJQsqaUBKTNV-1">
          <mxGeometry x="780" y="1020" width="240" height="80" as="geometry" />
        </mxCell>
        <mxCell id="SaZr0h4OyMX1n9Bar8NW-237" value="" style="endArrow=classic;html=1;rounded=0;fontFamily=Helvetica;fontSize=12;fontColor=default;entryX=0;entryY=0.5;entryDx=0;entryDy=0;edgeStyle=orthogonalEdgeStyle;" edge="1" parent="SaZr0h4OyMX1n9Bar8NW-231" target="SaZr0h4OyMX1n9Bar8NW-228">
          <mxGeometry width="50" height="50" relative="1" as="geometry">
            <mxPoint x="110" y="80" as="sourcePoint" />
            <mxPoint x="160" y="30" as="targetPoint" />
          </mxGeometry>
        </mxCell>
        <mxCell id="SaZr0h4OyMX1n9Bar8NW-232" value="通过构造函数外部传递配置路径，并且调用refresh方法" style="text;strokeColor=none;fillColor=none;align=center;verticalAlign=middle;spacingLeft=4;spacingRight=4;overflow=hidden;points=[[0,0.5],[1,0.5]];portConstraint=eastwest;rotatable=0;whiteSpace=wrap;html=1;fontFamily=Helvetica;fontSize=12;fontColor=default;" vertex="1" parent="SaZr0h4OyMX1n9Bar8NW-231">
          <mxGeometry y="30" width="240" height="50" as="geometry" />
        </mxCell>
        <mxCell id="SaZr0h4OyMX1n9Bar8NW-233" style="edgeStyle=orthogonalEdgeStyle;rounded=0;orthogonalLoop=1;jettySize=auto;html=1;exitX=0.5;exitY=0;exitDx=0;exitDy=0;entryX=0.557;entryY=0.98;entryDx=0;entryDy=0;entryPerimeter=0;fontFamily=Helvetica;fontSize=12;fontColor=default;" edge="1" parent="WIyWlLk6GJQsqaUBKTNV-1" source="SaZr0h4OyMX1n9Bar8NW-227" target="SaZr0h4OyMX1n9Bar8NW-223">
          <mxGeometry relative="1" as="geometry" />
        </mxCell>
        <mxCell id="SaZr0h4OyMX1n9Bar8NW-239" style="edgeStyle=orthogonalEdgeStyle;rounded=0;orthogonalLoop=1;jettySize=auto;html=1;exitX=0.5;exitY=0;exitDx=0;exitDy=0;entryX=0.587;entryY=1.015;entryDx=0;entryDy=0;entryPerimeter=0;fontFamily=Helvetica;fontSize=12;fontColor=default;" edge="1" parent="WIyWlLk6GJQsqaUBKTNV-1" source="SaZr0h4OyMX1n9Bar8NW-222" target="SaZr0h4OyMX1n9Bar8NW-218">
          <mxGeometry relative="1" as="geometry" />
        </mxCell>
        <mxCell id="SaZr0h4OyMX1n9Bar8NW-243" value="" style="endArrow=classic;html=1;rounded=0;fontFamily=Helvetica;fontSize=12;fontColor=default;edgeStyle=orthogonalEdgeStyle;entryX=0.961;entryY=0.849;entryDx=0;entryDy=0;entryPerimeter=0;dashed=1;dashPattern=1 1;" edge="1" parent="WIyWlLk6GJQsqaUBKTNV-1" target="SaZr0h4OyMX1n9Bar8NW-211">
          <mxGeometry width="50" height="50" relative="1" as="geometry">
            <mxPoint x="1310" y="990" as="sourcePoint" />
            <mxPoint x="1360" y="940" as="targetPoint" />
            <Array as="points">
              <mxPoint x="1310" y="991" />
              <mxPoint x="1380" y="991" />
              <mxPoint x="1380" y="1710" />
            </Array>
          </mxGeometry>
        </mxCell>
        <mxCell id="SaZr0h4OyMX1n9Bar8NW-244" value="ApplicationContext应用上下文" style="text;html=1;align=center;verticalAlign=middle;whiteSpace=wrap;rounded=0;fontSize=20;fontStyle=1" vertex="1" parent="WIyWlLk6GJQsqaUBKTNV-1">
          <mxGeometry x="820" y="750" width="115" height="30" as="geometry" />
        </mxCell>
        <mxCell id="SaZr0h4OyMX1n9Bar8NW-238" value="" style="rounded=0;whiteSpace=wrap;html=1;align=center;verticalAlign=middle;spacingLeft=4;spacingRight=4;fontFamily=Helvetica;fontSize=12;fontColor=default;fillColor=none;gradientColor=none;strokeWidth=2;" vertex="1" parent="WIyWlLk6GJQsqaUBKTNV-1">
          <mxGeometry x="770" y="360" width="590" height="880" as="geometry" />
        </mxCell>
      </root>
    </mxGraphModel>
  </diagram>
</mxfile>
